<mxfile host="app.diagrams.net" modified="2023-07-17T06:38:41.927Z" agent="Mozilla/5.0 (Windows NT 10.0; Win64; x64) AppleWebKit/537.36 (KHTML, like Gecko) Chrome/114.0.0.0 Safari/537.36" etag="8LMDASo3mWBc78Kz76vb" version="21.6.2" type="github">
  <diagram name="第 1 页" id="pNPIA2nkc6dB4uWRPwl1">
    <mxGraphModel dx="989" dy="521" grid="1" gridSize="10" guides="1" tooltips="1" connect="1" arrows="1" fold="1" page="1" pageScale="1" pageWidth="827" pageHeight="1169" math="0" shadow="0">
      <root>
        <mxCell id="0" />
        <mxCell id="1" parent="0" />
        <mxCell id="ciDQJHBA7km_DSmiqkd6-3" value="&lt;font style=&quot;font-size: 15px;&quot;&gt;发布者&lt;/font&gt;" style="rounded=1;whiteSpace=wrap;html=1;fillColor=#dae8fc;strokeColor=#6c8ebf;" vertex="1" parent="1">
          <mxGeometry x="40" y="280" width="80" height="40" as="geometry" />
        </mxCell>
        <mxCell id="ciDQJHBA7km_DSmiqkd6-4" value="" style="endArrow=none;html=1;rounded=0;strokeWidth=2;" edge="1" parent="1">
          <mxGeometry width="50" height="50" relative="1" as="geometry">
            <mxPoint x="120" y="300" as="sourcePoint" />
            <mxPoint x="160" y="300" as="targetPoint" />
          </mxGeometry>
        </mxCell>
        <mxCell id="ciDQJHBA7km_DSmiqkd6-7" value="发布消息" style="shape=message;html=1;html=1;outlineConnect=0;labelPosition=center;verticalLabelPosition=bottom;align=center;verticalAlign=top;fillColor=#dae8fc;strokeColor=#6c8ebf;" vertex="1" parent="1">
          <mxGeometry x="160" y="280" width="60" height="40" as="geometry" />
        </mxCell>
        <mxCell id="ciDQJHBA7km_DSmiqkd6-9" value="数据存储池" style="sketch=0;aspect=fixed;pointerEvents=1;shadow=0;dashed=0;html=1;strokeColor=none;labelPosition=center;verticalLabelPosition=bottom;verticalAlign=top;align=center;fillColor=#00188D;shape=mxgraph.mscae.enterprise.server_generic" vertex="1" parent="1">
          <mxGeometry x="270" y="220" width="67.2" height="140" as="geometry" />
        </mxCell>
        <mxCell id="ciDQJHBA7km_DSmiqkd6-10" value="" style="endArrow=classic;html=1;rounded=0;entryX=-0.036;entryY=0.569;entryDx=0;entryDy=0;entryPerimeter=0;strokeWidth=2;" edge="1" parent="1" target="ciDQJHBA7km_DSmiqkd6-9">
          <mxGeometry width="50" height="50" relative="1" as="geometry">
            <mxPoint x="220" y="300" as="sourcePoint" />
            <mxPoint x="270" y="250" as="targetPoint" />
          </mxGeometry>
        </mxCell>
        <mxCell id="ciDQJHBA7km_DSmiqkd6-11" value="&lt;font style=&quot;font-size: 15px;&quot;&gt;订阅者&lt;/font&gt;" style="rounded=1;whiteSpace=wrap;html=1;fillColor=#dae8fc;strokeColor=#6c8ebf;" vertex="1" parent="1">
          <mxGeometry x="480" y="220" width="80" height="40" as="geometry" />
        </mxCell>
        <mxCell id="ciDQJHBA7km_DSmiqkd6-12" value="&lt;font style=&quot;font-size: 15px;&quot;&gt;订阅者&lt;/font&gt;" style="rounded=1;whiteSpace=wrap;html=1;fillColor=#dae8fc;strokeColor=#6c8ebf;" vertex="1" parent="1">
          <mxGeometry x="480" y="320" width="80" height="40" as="geometry" />
        </mxCell>
        <mxCell id="ciDQJHBA7km_DSmiqkd6-13" value="" style="endArrow=classic;html=1;rounded=0;exitX=1.021;exitY=0.205;exitDx=0;exitDy=0;exitPerimeter=0;strokeWidth=2;" edge="1" parent="1" source="ciDQJHBA7km_DSmiqkd6-9">
          <mxGeometry relative="1" as="geometry">
            <mxPoint x="380" y="250" as="sourcePoint" />
            <mxPoint x="480" y="250" as="targetPoint" />
          </mxGeometry>
        </mxCell>
        <mxCell id="ciDQJHBA7km_DSmiqkd6-14" value="发送" style="edgeLabel;resizable=0;html=1;align=center;verticalAlign=middle;" connectable="0" vertex="1" parent="ciDQJHBA7km_DSmiqkd6-13">
          <mxGeometry relative="1" as="geometry" />
        </mxCell>
        <mxCell id="ciDQJHBA7km_DSmiqkd6-15" value="" style="endArrow=classic;html=1;rounded=0;exitX=1.021;exitY=0.205;exitDx=0;exitDy=0;exitPerimeter=0;strokeWidth=2;" edge="1" parent="1">
          <mxGeometry relative="1" as="geometry">
            <mxPoint x="337.2" y="350" as="sourcePoint" />
            <mxPoint x="478.2" y="351" as="targetPoint" />
          </mxGeometry>
        </mxCell>
        <mxCell id="ciDQJHBA7km_DSmiqkd6-16" value="发送" style="edgeLabel;resizable=0;html=1;align=center;verticalAlign=middle;" connectable="0" vertex="1" parent="ciDQJHBA7km_DSmiqkd6-15">
          <mxGeometry relative="1" as="geometry" />
        </mxCell>
        <mxCell id="ciDQJHBA7km_DSmiqkd6-22" value="" style="endArrow=classic;html=1;rounded=0;strokeWidth=2;" edge="1" parent="1">
          <mxGeometry relative="1" as="geometry">
            <mxPoint x="480" y="230" as="sourcePoint" />
            <mxPoint x="340" y="230.34" as="targetPoint" />
          </mxGeometry>
        </mxCell>
        <mxCell id="ciDQJHBA7km_DSmiqkd6-23" value="订阅" style="edgeLabel;resizable=0;html=1;align=center;verticalAlign=middle;" connectable="0" vertex="1" parent="ciDQJHBA7km_DSmiqkd6-22">
          <mxGeometry relative="1" as="geometry" />
        </mxCell>
        <mxCell id="ciDQJHBA7km_DSmiqkd6-26" value="" style="endArrow=classic;html=1;rounded=0;strokeWidth=2;" edge="1" parent="1">
          <mxGeometry relative="1" as="geometry">
            <mxPoint x="477.2" y="329.99999999999994" as="sourcePoint" />
            <mxPoint x="337.2" y="330.34" as="targetPoint" />
          </mxGeometry>
        </mxCell>
        <mxCell id="ciDQJHBA7km_DSmiqkd6-27" value="订阅" style="edgeLabel;resizable=0;html=1;align=center;verticalAlign=middle;" connectable="0" vertex="1" parent="ciDQJHBA7km_DSmiqkd6-26">
          <mxGeometry relative="1" as="geometry" />
        </mxCell>
        <mxCell id="ciDQJHBA7km_DSmiqkd6-28" value="" style="shape=message;html=1;html=1;outlineConnect=0;labelPosition=center;verticalLabelPosition=bottom;align=center;verticalAlign=top;fillColor=#dae8fc;strokeColor=#6c8ebf;" vertex="1" parent="1">
          <mxGeometry x="384" y="270" width="60" height="40" as="geometry" />
        </mxCell>
      </root>
    </mxGraphModel>
  </diagram>
</mxfile>
